<svg width="195" height="33" viewBox="0 0 195 33" fill="none" xmlns="http://www.w3.org/2000/svg">
<path d="M10.3906 26.4219C5.15234 26.4219 1.79492 24.3301 0.775391 21.5527C0.599609 21.0957 0.494141 20.6035 0.494141 20.1289C0.494141 18.7227 1.46094 17.791 2.83203 17.791C3.92188 17.791 4.64258 18.2129 5.27539 19.3379C6.10156 21.2715 8.08789 22.1504 10.5137 22.1504C13.3613 22.1504 15.2949 20.7793 15.2949 18.916C15.2949 17.2461 14.0996 16.2969 10.918 15.6465L8.22852 15.1191C3.16602 14.1172 0.6875 11.6914 0.6875 7.91211C0.6875 3.27148 4.73047 0.195312 10.373 0.195312C15.0137 0.195312 18.5117 2.14648 19.6367 5.45117C19.7598 5.80273 19.8301 6.17188 19.8301 6.62891C19.8301 7.89453 18.916 8.75586 17.5625 8.75586C16.3672 8.75586 15.6289 8.28125 15.0312 7.19141C14.1875 5.27539 12.5527 4.48438 10.373 4.48438C7.75391 4.48438 6.01367 5.71484 6.01367 7.57812C6.01367 9.14258 7.22656 10.1094 10.2324 10.707L12.9043 11.252C18.2832 12.3242 20.6035 14.4863 20.6035 18.3359C20.6035 23.293 16.7188 26.4219 10.3906 26.4219ZM29.1071 21.1836V11.0234H28.1227C26.9098 11.0234 26.1364 10.2852 26.1364 9.08984C26.1364 7.89453 26.9098 7.15625 28.1227 7.15625H29.1071V5.06445C29.1071 3.41211 30.0739 2.39258 31.6735 2.39258C33.2731 2.39258 34.2399 3.41211 34.2399 5.06445V7.15625H36.0505C37.2634 7.15625 38.0192 7.91211 38.0192 9.08984C38.0192 10.2676 37.2634 11.0234 36.0505 11.0234H34.2399V20.041C34.2399 21.377 34.697 21.9395 35.8044 22.0273L36.1384 22.0625C37.404 22.2031 38.0895 22.7305 38.0895 23.9258C38.0895 25.4375 36.613 26.2109 34.4509 26.2109H34.2751C30.8473 26.2109 29.1071 24.5059 29.1071 21.1836ZM53.2201 26.4043C47.5248 26.4043 43.8861 22.748 43.8861 16.5605C43.8861 10.4609 47.5775 6.75195 53.2201 6.75195C58.8627 6.75195 62.5541 10.4434 62.5541 16.5605C62.5541 22.7656 58.9154 26.4043 53.2201 26.4043ZM53.2201 22.4844C55.7337 22.4844 57.3334 20.3574 57.3334 16.5781C57.3334 12.834 55.7162 10.6719 53.2201 10.6719C50.724 10.6719 49.0892 12.834 49.0892 16.5781C49.0892 20.3574 50.6888 22.4844 53.2201 22.4844ZM72.0948 32.7148C70.6006 32.7148 69.5284 31.8008 69.5284 30.043V9.40625C69.5284 7.68359 70.583 6.76953 72.0596 6.76953C73.5362 6.76953 74.5909 7.68359 74.5909 9.42383V10.4434H74.6963C75.7159 8.22852 77.8077 6.85742 80.5323 6.85742C85.3135 6.85742 88.2491 10.4961 88.2491 16.5781C88.2491 22.6426 85.3311 26.2988 80.6202 26.2988C77.878 26.2988 75.7686 24.9629 74.7666 22.8359H74.6612V30.043C74.6612 31.8008 73.6065 32.7148 72.0948 32.7148ZM78.8096 22.168C81.376 22.168 82.9932 20.0059 82.9932 16.5781C82.9932 13.168 81.376 10.9707 78.8096 10.9707C76.2959 10.9707 74.6436 13.2031 74.6436 16.5781C74.6436 19.9883 76.2959 22.168 78.8096 22.168ZM109.774 26C108.104 26 107.12 24.9805 107.12 23.2227V3.06055C107.12 1.30273 108.104 0.283203 109.774 0.283203C111.444 0.283203 112.428 1.30273 112.428 3.06055V21.6055H121.428C122.87 21.6055 123.836 22.4316 123.836 23.8027C123.836 25.1738 122.887 26 121.428 26H109.774ZM138.914 26.4043C133.219 26.4043 129.58 22.748 129.58 16.5605C129.58 10.4609 133.272 6.75195 138.914 6.75195C144.557 6.75195 148.248 10.4434 148.248 16.5605C148.248 22.7656 144.609 26.4043 138.914 26.4043ZM138.914 22.4844C141.428 22.4844 143.027 20.3574 143.027 16.5781C143.027 12.834 141.41 10.6719 138.914 10.6719C136.418 10.6719 134.783 12.834 134.783 16.5781C134.783 20.3574 136.383 22.4844 138.914 22.4844ZM162.904 26.4043C158.58 26.4043 155.697 24.8574 154.801 22.6426C154.678 22.3086 154.607 21.9746 154.607 21.6934C154.607 20.5156 155.486 19.7246 156.681 19.7246C157.508 19.7246 158.211 20.0938 158.914 20.8848C159.916 22.2031 161.076 22.8008 163.027 22.8008C164.89 22.8008 166.103 22.0273 166.103 20.7793C166.103 19.7598 165.453 19.2148 163.607 18.8105L160.443 18.1426C156.752 17.3516 154.888 15.4707 154.888 12.6758C154.888 9.07227 158 6.75195 162.886 6.75195C166.789 6.75195 169.654 8.52734 170.269 10.6543C170.34 10.918 170.392 11.1641 170.392 11.4102C170.392 12.4473 169.742 13.168 168.424 13.168C167.756 13.168 167.017 12.9219 166.56 12.377C165.664 11.2344 164.644 10.3555 162.799 10.3555C161.058 10.3555 159.845 11.1816 159.845 12.3945C159.845 13.3789 160.584 14.0293 162.465 14.4336L165.576 15.1016C169.584 15.9453 171.236 17.4219 171.236 20.2344C171.236 23.9785 167.879 26.4043 162.904 26.4043ZM185.787 26.4043C181.462 26.4043 178.58 24.8574 177.683 22.6426C177.56 22.3086 177.49 21.9746 177.49 21.6934C177.49 20.5156 178.369 19.7246 179.564 19.7246C180.39 19.7246 181.093 20.0938 181.796 20.8848C182.798 22.2031 183.958 22.8008 185.91 22.8008C187.773 22.8008 188.986 22.0273 188.986 20.7793C188.986 19.7598 188.335 19.2148 186.49 18.8105L183.326 18.1426C179.634 17.3516 177.771 15.4707 177.771 12.6758C177.771 9.07227 180.882 6.75195 185.769 6.75195C189.671 6.75195 192.537 8.52734 193.152 10.6543C193.222 10.918 193.275 11.1641 193.275 11.4102C193.275 12.4473 192.624 13.168 191.306 13.168C190.638 13.168 189.9 12.9219 189.443 12.377C188.546 11.2344 187.527 10.3555 185.681 10.3555C183.941 10.3555 182.728 11.1816 182.728 12.3945C182.728 13.3789 183.466 14.0293 185.347 14.4336L188.458 15.1016C192.466 15.9453 194.119 17.4219 194.119 20.2344C194.119 23.9785 190.761 26.4043 185.787 26.4043Z" fill="#E2E8F0"/>
</svg>
